# xmcd
#
# Track frame offsets:
#	150
#	5805
#	32955
#	48029
#	60616
#	88189
#	110195
#	141002
#	169372
#	191806
#	215858
#
# Disc length: 2914 seconds
#
# Revision: 1
# Processed by: cddbd v1.5.2PL0 Copyright (c) Steve Scherf et al.
# Submitted via: audiograbber 1.83.01
#
DISCID=aa0b600b
DTITLE=Acoustic Blues Duo - Comicbook
DYEAR=2001
DGENRE=Blues
TTITLE0=For A Song (Intro)
TTITLE1=The Great Change In Me
TTITLE2=La Valse De Marie
TTITLE3=Buck Dance
TTITLE4=Mama, Quittin' And Leavin'
TTITLE5=Jazzman
TTITLE6=Mobile Blues
TTITLE7=When I Paint My Masterpiece
TTITLE8=Fighting A Losing Battle
TTITLE9=From Dover To Dunkirk
TTITLE10=To Face The Music
EXTD=
EXTT0=
EXTT1=
EXTT2=
EXTT3=
EXTT4=
EXTT5=
EXTT6=
EXTT7=
EXTT8=
EXTT9=
EXTT10=
PLAYORDER=
